<?xml version="1.0" standalone="no"?><!DOCTYPE svg PUBLIC "-//W3C//DTD SVG 1.1//EN" "http://www.w3.org/Graphics/SVG/1.1/DTD/svg11.dtd"><svg t="1623550812525" class="icon" viewBox="0 0 1024 1024" version="1.1" xmlns="http://www.w3.org/2000/svg" p-id="1379" xmlns:xlink="http://www.w3.org/1999/xlink" width="200" height="200"><defs><style type="text/css"></style></defs><path d="M393 475.7H176.5c-44.9 0-81.5-36.6-81.5-81.5V182.5c0-44.9 36.6-81.5 81.5-81.5H393c44.9 0 81.5 36.6 81.5 81.5v211.7c0 45-36.5 81.5-81.5 81.5zM176.5 155.4c-15 0-27.2 12.2-27.2 27.2v211.7c0 15 12.2 27.2 27.2 27.2H393c15 0 27.2-12.2 27.2-27.2V182.5c0-15-12.2-27.2-27.2-27.2l-216.5 0.1zM846.5 469.9H629.9c-44.9 0-81.5-36.6-81.5-81.5V176.7c0-44.9 36.6-81.5 81.5-81.5h216.6c44.9 0 81.5 36.6 81.5 81.5v211.7c0 44.9-36.6 81.5-81.5 81.5zM629.9 149.5c-15 0-27.2 12.2-27.2 27.2v211.7c0 15 12.2 27.2 27.2 27.2h216.6c15 0 27.2-12.2 27.2-27.2V176.7c0-15-12.2-27.2-27.2-27.2H629.9zM393 928.2H176.5c-44.9 0-81.5-36.6-81.5-81.5V635c0-44.9 36.6-81.5 81.5-81.5H393c44.9 0 81.5 36.6 81.5 81.5v211.7c0 45-36.5 81.5-81.5 81.5zM176.5 607.9c-15 0-27.2 12.2-27.2 27.2v211.7c0 15 12.2 27.2 27.2 27.2H393c15 0 27.2-12.2 27.2-27.2V635c0-15-12.2-27.2-27.2-27.2H176.5v0.1zM846.5 922.4H629.9c-44.9 0-81.5-36.6-81.5-81.5V629.2c0-44.9 36.6-81.5 81.5-81.5h216.6c44.9 0 81.5 36.6 81.5 81.5v211.7c0 44.9-36.6 81.5-81.5 81.5zM629.9 602c-15 0-27.2 12.2-27.2 27.2v211.7c0 15 12.2 27.2 27.2 27.2h216.6c15 0 27.2-12.2 27.2-27.2V629.2c0-15-12.2-27.2-27.2-27.2H629.9z" fill="#FC592D" p-id="1380"></path></svg>