<?xml version="1.0" standalone="no"?><!DOCTYPE svg PUBLIC "-//W3C//DTD SVG 1.1//EN" "http://www.w3.org/Graphics/SVG/1.1/DTD/svg11.dtd"><svg t="1623551063931" class="icon" viewBox="0 0 1024 1024" version="1.1" xmlns="http://www.w3.org/2000/svg" p-id="4280" xmlns:xlink="http://www.w3.org/1999/xlink" width="200" height="200"><defs><style type="text/css"></style></defs><path d="M512 615.305c-158.124 0-286.767-128.643-286.767-286.767s128.643-286.767 286.767-286.767 286.767 128.644 286.767 286.768c0 158.123-128.643 286.765-286.767 286.765zM512 150.513c-98.162 0-178.025 79.862-178.025 178.026 0 98.162 79.861 178.025 178.025 178.025s178.025-79.861 178.025-178.025c0-98.165-79.862-178.026-178.025-178.026z" fill="#8a8a8a" p-id="4281"></path><path d="M878.613 982.227c-30.027 0-54.371-24.342-54.371-54.371 0-172.172-140.070-312.242-312.242-312.242s-312.242 140.070-312.242 312.242c0 30.027-24.342 54.371-54.371 54.371s-54.371-24.342-54.371-54.371c0-112.451 43.79-218.165 123.303-297.68 79.515-79.513 185.231-123.303 297.68-123.303s218.165 43.789 297.68 123.303c79.514 79.515 123.303 185.231 123.303 297.68 0 30.027-24.342 54.371-54.371 54.371z" fill="#8a8a8a" p-id="4282"></path></svg>