<?xml version="1.0" standalone="no"?><!DOCTYPE svg PUBLIC "-//W3C//DTD SVG 1.1//EN" "http://www.w3.org/Graphics/SVG/1.1/DTD/svg11.dtd"><svg t="1623550904932" class="icon" viewBox="0 0 1024 1024" version="1.1" xmlns="http://www.w3.org/2000/svg" p-id="2315" xmlns:xlink="http://www.w3.org/1999/xlink" width="200" height="200"><defs><style type="text/css"></style></defs><path d="M64.384 149.333333h108.288a31.573333 31.573333 0 0 1 29.568 24.448l100.608 556.032c6.016 33.365333 37.12 59.52 70.997333 59.52H896a21.333333 21.333333 0 1 0 0-42.666666H373.845333c-13.226667 0-26.624-11.306667-29.013333-24.448L244.224 166.186667C238.08 132.565333 206.805333 106.666667 172.672 106.666667H64.426667a21.333333 21.333333 0 0 0 0 42.666666z" p-id="2316"></path><path d="M341.333333 234.666667h576.725334c11.52 0 21.248 9.728 21.248 21.077333v297.728c0 12.16-10.666667 23.594667-22.997334 24.576l-500.138666 40.704a21.333333 21.333333 0 1 0 3.456 42.496l500.138666-40.661333a68.437333 68.437333 0 0 0 62.208-67.114667V255.744c0-34.858667-28.757333-63.744-63.914666-63.744H341.333333a21.333333 21.333333 0 0 0 0 42.666667z" p-id="2317"></path><path d="M384 896m-42.666667 0a42.666667 42.666667 0 1 0 85.333334 0 42.666667 42.666667 0 1 0-85.333334 0Z" p-id="2318"></path><path d="M853.333333 896m-42.666666 0a42.666667 42.666667 0 1 0 85.333333 0 42.666667 42.666667 0 1 0-85.333333 0Z" p-id="2319"></path></svg>