<?xml version="1.0" standalone="no"?><!DOCTYPE svg PUBLIC "-//W3C//DTD SVG 1.1//EN" "http://www.w3.org/Graphics/SVG/1.1/DTD/svg11.dtd"><svg t="1623550995198" class="icon" viewBox="0 0 1025 1024" version="1.1" xmlns="http://www.w3.org/2000/svg" p-id="3299" xmlns:xlink="http://www.w3.org/1999/xlink" width="200.1953125" height="200"><defs><style type="text/css"></style></defs><path d="M853.796053 343.68L512.46272 95.402667 171.129387 343.658667V896a42.666667 42.666667 0 0 0 42.666666 42.666667h128v-170.666667a128 128 0 0 1 128-128h85.333334a128 128 0 0 1 128 128v256h-42.666667a42.666667 42.666667 0 0 1-42.666667-42.666667V768a42.666667 42.666667 0 0 0-42.666666-42.666667h-85.333334a42.666667 42.666667 0 0 0-42.666666 42.666667v213.333333a42.666667 42.666667 0 0 1-42.666667 42.666667h-170.666667a128 128 0 0 1-128-128V405.717333l-17.578666 12.8a42.666667 42.666667 0 1 1-50.176-69.013333l469.333333-341.333333a42.666667 42.666667 0 0 1 50.176 0l469.333333 341.333333a42.666667 42.666667 0 1 1-50.176 68.992L939.129387 405.717333V896a128 128 0 0 1-128 128h-128v-85.333333h128a42.666667 42.666667 0 0 0 42.666666-42.666667V343.68z" fill="#8a8a8a" p-id="3300"></path></svg>